<svg xmlns="http://www.w3.org/2000/svg" version="1.1" shape-rendering="crispEdges" viewBox="0 1 58 54">
<rect x="37" y="24" width="1" height="1" fill="#D77BBA" />
<rect x="34" y="25" width="1" height="1" fill="#D77BBA" />
<rect x="35" y="25" width="1" height="1" fill="#D77BBA" />
<rect x="36" y="25" width="1" height="1" fill="#D77BBA" />
<rect x="37" y="25" width="1" height="1" fill="#D77BBA" />
<rect x="38" y="25" width="1" height="1" fill="#D77BBA" />
<rect x="33" y="26" width="1" height="1" fill="#D77BBA" />
<rect x="34" y="26" width="1" height="1" fill="#D77BBA" />
<rect x="35" y="26" width="1" height="1" fill="#D77BBA" />
<rect x="36" y="26" width="1" height="1" fill="#D77BBA" />
<rect x="37" y="26" width="1" height="1" fill="#D77BBA" />
<rect x="38" y="26" width="1" height="1" fill="#D77BBA" />
<rect x="39" y="26" width="1" height="1" fill="#D77BBA" />
<rect x="33" y="27" width="1" height="1" fill="#D77BBA" />
<rect x="34" y="27" width="1" height="1" fill="#D77BBA" />
<rect x="35" y="27" width="1" height="1" fill="#D77BBA" />
<rect x="36" y="27" width="1" height="1" fill="#D77BBA" />
<rect x="37" y="27" width="1" height="1" fill="#D77BBA" />
<rect x="38" y="27" width="1" height="1" fill="#D77BBA" />
<rect x="39" y="27" width="1" height="1" fill="#D77BBA" />
<rect x="40" y="27" width="1" height="1" fill="#D77BBA" />
<rect x="32" y="28" width="1" height="1" fill="#D77BBA" />
<rect x="33" y="28" width="1" height="1" fill="#D77BBA" />
<rect x="34" y="28" width="1" height="1" fill="#D77BBA" />
<rect x="35" y="28" width="1" height="1" fill="#D77BBA" />
<rect x="36" y="28" width="1" height="1" fill="#D77BBA" />
<rect x="37" y="28" width="1" height="1" fill="#D77BBA" />
<rect x="38" y="28" width="1" height="1" fill="#D77BBA" />
<rect x="39" y="28" width="1" height="1" fill="#D77BBA" />
<rect x="40" y="28" width="1" height="1" fill="#D77BBA" />
<rect x="41" y="28" width="1" height="1" fill="#D77BBA" />
<rect x="29" y="29" width="1" height="1" fill="#D77BBA" />
<rect x="30" y="29" width="1" height="1" fill="#D77BBA" />
<rect x="31" y="29" width="1" height="1" fill="#D77BBA" />
<rect x="32" y="29" width="1" height="1" fill="#D77BBA" />
<rect x="33" y="29" width="1" height="1" fill="#D77BBA" />
<rect x="34" y="29" width="1" height="1" fill="#D77BBA" />
<rect x="35" y="29" width="1" height="1" fill="#D77BBA" />
<rect x="36" y="29" width="1" height="1" fill="#D77BBA" />
<rect x="37" y="29" width="1" height="1" fill="#D77BBA" />
<rect x="38" y="29" width="1" height="1" fill="#D77BBA" />
<rect x="39" y="29" width="1" height="1" fill="#D77BBA" />
<rect x="40" y="29" width="1" height="1" fill="#D77BBA" />
<rect x="41" y="29" width="1" height="1" fill="#D77BBA" />
<rect x="42" y="29" width="1" height="1" fill="#D77BBA" />
<rect x="28" y="30" width="1" height="1" fill="#D77BBA" />
<rect x="29" y="30" width="1" height="1" fill="#D77BBA" />
<rect x="30" y="30" width="1" height="1" fill="#D77BBA" />
<rect x="31" y="30" width="1" height="1" fill="#D77BBA" />
<rect x="32" y="30" width="1" height="1" fill="#D77BBA" />
<rect x="33" y="30" width="1" height="1" fill="#D77BBA" />
<rect x="34" y="30" width="1" height="1" fill="#D77BBA" />
<rect x="35" y="30" width="1" height="1" fill="#D77BBA" />
<rect x="36" y="30" width="1" height="1" fill="#D77BBA" />
<rect x="37" y="30" width="1" height="1" fill="#D77BBA" />
<rect x="38" y="30" width="1" height="1" fill="#D77BBA" />
<rect x="39" y="30" width="1" height="1" fill="#D77BBA" />
<rect x="40" y="30" width="1" height="1" fill="#D77BBA" />
<rect x="41" y="30" width="1" height="1" fill="#D77BBA" />
<rect x="42" y="30" width="1" height="1" fill="#D77BBA" />
<rect x="43" y="30" width="1" height="1" fill="#D77BBA" />
<rect x="28" y="31" width="1" height="1" fill="#D77BBA" />
<rect x="29" y="31" width="1" height="1" fill="#D77BBA" />
<rect x="30" y="31" width="1" height="1" fill="#D77BBA" />
<rect x="31" y="31" width="1" height="1" fill="#D77BBA" />
<rect x="32" y="31" width="1" height="1" fill="#D77BBA" />
<rect x="33" y="31" width="1" height="1" fill="#D77BBA" />
<rect x="34" y="31" width="1" height="1" fill="#D77BBA" />
<rect x="35" y="31" width="1" height="1" fill="#D77BBA" />
<rect x="36" y="31" width="1" height="1" fill="#D77BBA" />
<rect x="37" y="31" width="1" height="1" fill="#D77BBA" />
<rect x="38" y="31" width="1" height="1" fill="#D77BBA" />
<rect x="39" y="31" width="1" height="1" fill="#D77BBA" />
<rect x="40" y="31" width="1" height="1" fill="#D77BBA" />
<rect x="41" y="31" width="1" height="1" fill="#D77BBA" />
<rect x="42" y="31" width="1" height="1" fill="#D77BBA" />
<rect x="43" y="31" width="1" height="1" fill="#D77BBA" />
<rect x="44" y="31" width="1" height="1" fill="#D77BBA" />
<rect x="28" y="32" width="1" height="1" fill="#D77BBA" />
<rect x="29" y="32" width="1" height="1" fill="#D77BBA" />
<rect x="30" y="32" width="1" height="1" fill="#D77BBA" />
<rect x="31" y="32" width="1" height="1" fill="#D77BBA" />
<rect x="32" y="32" width="1" height="1" fill="#D77BBA" />
<rect x="33" y="32" width="1" height="1" fill="#D77BBA" />
<rect x="34" y="32" width="1" height="1" fill="#D77BBA" />
<rect x="35" y="32" width="1" height="1" fill="#D77BBA" />
<rect x="36" y="32" width="1" height="1" fill="#D77BBA" />
<rect x="37" y="32" width="1" height="1" fill="#D77BBA" />
<rect x="38" y="32" width="1" height="1" fill="#D77BBA" />
<rect x="39" y="32" width="1" height="1" fill="#D77BBA" />
<rect x="40" y="32" width="1" height="1" fill="#D77BBA" />
<rect x="41" y="32" width="1" height="1" fill="#D77BBA" />
<rect x="42" y="32" width="1" height="1" fill="#D77BBA" />
<rect x="43" y="32" width="1" height="1" fill="#D77BBA" />
<rect x="44" y="32" width="1" height="1" fill="#D77BBA" />
<rect x="45" y="32" width="1" height="1" fill="#D77BBA" />
<rect x="27" y="33" width="1" height="1" fill="#D77BBA" />
<rect x="28" y="33" width="1" height="1" fill="#D77BBA" />
<rect x="29" y="33" width="1" height="1" fill="#D77BBA" />
<rect x="30" y="33" width="1" height="1" fill="#D77BBA" />
<rect x="31" y="33" width="1" height="1" fill="#D77BBA" />
<rect x="32" y="33" width="1" height="1" fill="#D77BBA" />
<rect x="33" y="33" width="1" height="1" fill="#D77BBA" />
<rect x="34" y="33" width="1" height="1" fill="#D77BBA" />
<rect x="35" y="33" width="1" height="1" fill="#D77BBA" />
<rect x="36" y="33" width="1" height="1" fill="#D77BBA" />
<rect x="37" y="33" width="1" height="1" fill="#D77BBA" />
<rect x="38" y="33" width="1" height="1" fill="#D77BBA" />
<rect x="39" y="33" width="1" height="1" fill="#D77BBA" />
<rect x="40" y="33" width="1" height="1" fill="#D77BBA" />
<rect x="41" y="33" width="1" height="1" fill="#D77BBA" />
<rect x="42" y="33" width="1" height="1" fill="#D77BBA" />
<rect x="43" y="33" width="1" height="1" fill="#D77BBA" />
<rect x="44" y="33" width="1" height="1" fill="#D77BBA" />
<rect x="45" y="33" width="1" height="1" fill="#D77BBA" />
<rect x="46" y="33" width="1" height="1" fill="#D77BBA" />
<rect x="26" y="34" width="1" height="1" fill="#D77BBA" />
<rect x="27" y="34" width="1" height="1" fill="#D77BBA" />
<rect x="28" y="34" width="1" height="1" fill="#D77BBA" />
<rect x="29" y="34" width="1" height="1" fill="#D77BBA" />
<rect x="30" y="34" width="1" height="1" fill="#D77BBA" />
<rect x="31" y="34" width="1" height="1" fill="#D77BBA" />
<rect x="32" y="34" width="1" height="1" fill="#D77BBA" />
<rect x="33" y="34" width="1" height="1" fill="#D77BBA" />
<rect x="34" y="34" width="1" height="1" fill="#D77BBA" />
<rect x="35" y="34" width="1" height="1" fill="#D77BBA" />
<rect x="36" y="34" width="1" height="1" fill="#D77BBA" />
<rect x="37" y="34" width="1" height="1" fill="#D77BBA" />
<rect x="38" y="34" width="1" height="1" fill="#D77BBA" />
<rect x="39" y="34" width="1" height="1" fill="#D77BBA" />
<rect x="40" y="34" width="1" height="1" fill="#D77BBA" />
<rect x="41" y="34" width="1" height="1" fill="#D77BBA" />
<rect x="42" y="34" width="1" height="1" fill="#D77BBA" />
<rect x="43" y="34" width="1" height="1" fill="#D77BBA" />
<rect x="44" y="34" width="1" height="1" fill="#D77BBA" />
<rect x="45" y="34" width="1" height="1" fill="#D77BBA" />
<rect x="46" y="34" width="1" height="1" fill="#D77BBA" />
<rect x="47" y="34" width="1" height="1" fill="#D77BBA" />
<rect x="26" y="35" width="1" height="1" fill="#D77BBA" />
<rect x="27" y="35" width="1" height="1" fill="#D77BBA" />
<rect x="28" y="35" width="1" height="1" fill="#D77BBA" />
<rect x="29" y="35" width="1" height="1" fill="#DB9FC8" />
<rect x="30" y="35" width="1" height="1" fill="#D77BBA" />
<rect x="31" y="35" width="1" height="1" fill="#D77BBA" />
<rect x="32" y="35" width="1" height="1" fill="#D77BBA" />
<rect x="33" y="35" width="1" height="1" fill="#D77BBA" />
<rect x="34" y="35" width="1" height="1" fill="#D77BBA" />
<rect x="35" y="35" width="1" height="1" fill="#D77BBA" />
<rect x="36" y="35" width="1" height="1" fill="#D77BBA" />
<rect x="37" y="35" width="1" height="1" fill="#D77BBA" />
<rect x="38" y="35" width="1" height="1" fill="#D77BBA" />
<rect x="39" y="35" width="1" height="1" fill="#D77BBA" />
<rect x="40" y="35" width="1" height="1" fill="#D77BBA" />
<rect x="41" y="35" width="1" height="1" fill="#D77BBA" />
<rect x="42" y="35" width="1" height="1" fill="#D77BBA" />
<rect x="43" y="35" width="1" height="1" fill="#D77BBA" />
<rect x="44" y="35" width="1" height="1" fill="#D77BBA" />
<rect x="45" y="35" width="1" height="1" fill="#D77BBA" />
<rect x="46" y="35" width="1" height="1" fill="#D77BBA" />
<rect x="47" y="35" width="1" height="1" fill="#D77BBA" />
<rect x="48" y="35" width="1" height="1" fill="#D77BBA" />
<rect x="27" y="36" width="1" height="1" fill="#D77BBA" />
<rect x="28" y="36" width="1" height="1" fill="#D77BBA" />
<rect x="29" y="36" width="1" height="1" fill="#D77BBA" />
<rect x="30" y="36" width="1" height="1" fill="#DB9FC8" />
<rect x="31" y="36" width="1" height="1" fill="#D77BBA" />
<rect x="32" y="36" width="1" height="1" fill="#D77BBA" />
<rect x="33" y="36" width="1" height="1" fill="#D77BBA" />
<rect x="34" y="36" width="1" height="1" fill="#D77BBA" />
<rect x="35" y="36" width="1" height="1" fill="#D77BBA" />
<rect x="36" y="36" width="1" height="1" fill="#D77BBA" />
<rect x="37" y="36" width="1" height="1" fill="#D77BBA" />
<rect x="38" y="36" width="1" height="1" fill="#D77BBA" />
<rect x="39" y="36" width="1" height="1" fill="#D77BBA" />
<rect x="40" y="36" width="1" height="1" fill="#D77BBA" />
<rect x="41" y="36" width="1" height="1" fill="#D77BBA" />
<rect x="42" y="36" width="1" height="1" fill="#D77BBA" />
<rect x="43" y="36" width="1" height="1" fill="#D77BBA" />
<rect x="44" y="36" width="1" height="1" fill="#D77BBA" />
<rect x="45" y="36" width="1" height="1" fill="#D77BBA" />
<rect x="46" y="36" width="1" height="1" fill="#D77BBA" />
<rect x="47" y="36" width="1" height="1" fill="#D77BBA" />
<rect x="48" y="36" width="1" height="1" fill="#D77BBA" />
<rect x="49" y="36" width="1" height="1" fill="#D77BBA" />
<rect x="28" y="37" width="1" height="1" fill="#D77BBA" />
<rect x="29" y="37" width="1" height="1" fill="#D77BBA" />
<rect x="30" y="37" width="1" height="1" fill="#DB9FC8" />
<rect x="31" y="37" width="1" height="1" fill="#DB9FC8" />
<rect x="32" y="37" width="1" height="1" fill="#D77BBA" />
<rect x="33" y="37" width="1" height="1" fill="#D77BBA" />
<rect x="34" y="37" width="1" height="1" fill="#D77BBA" />
<rect x="35" y="37" width="1" height="1" fill="#D77BBA" />
<rect x="36" y="37" width="1" height="1" fill="#D77BBA" />
<rect x="37" y="37" width="1" height="1" fill="#D77BBA" />
<rect x="38" y="37" width="1" height="1" fill="#D77BBA" />
<rect x="39" y="37" width="1" height="1" fill="#D77BBA" />
<rect x="40" y="37" width="1" height="1" fill="#D77BBA" />
<rect x="41" y="37" width="1" height="1" fill="#D77BBA" />
<rect x="42" y="37" width="1" height="1" fill="#D77BBA" />
<rect x="43" y="37" width="1" height="1" fill="#D77BBA" />
<rect x="44" y="37" width="1" height="1" fill="#D77BBA" />
<rect x="45" y="37" width="1" height="1" fill="#D77BBA" />
<rect x="46" y="37" width="1" height="1" fill="#D77BBA" />
<rect x="47" y="37" width="1" height="1" fill="#D77BBA" />
<rect x="48" y="37" width="1" height="1" fill="#D77BBA" />
<rect x="49" y="37" width="1" height="1" fill="#D77BBA" />
<rect x="50" y="37" width="1" height="1" fill="#D77BBA" />
<rect x="29" y="38" width="1" height="1" fill="#D77BBA" />
<rect x="30" y="38" width="1" height="1" fill="#D77BBA" />
<rect x="31" y="38" width="1" height="1" fill="#DB9FC8" />
<rect x="32" y="38" width="1" height="1" fill="#DB9FC8" />
<rect x="33" y="38" width="1" height="1" fill="#D77BBA" />
<rect x="34" y="38" width="1" height="1" fill="#D77BBA" />
<rect x="35" y="38" width="1" height="1" fill="#D77BBA" />
<rect x="36" y="38" width="1" height="1" fill="#D77BBA" />
<rect x="37" y="38" width="1" height="1" fill="#D77BBA" />
<rect x="38" y="38" width="1" height="1" fill="#D77BBA" />
<rect x="39" y="38" width="1" height="1" fill="#D77BBA" />
<rect x="40" y="38" width="1" height="1" fill="#D77BBA" />
<rect x="41" y="38" width="1" height="1" fill="#D77BBA" />
<rect x="42" y="38" width="1" height="1" fill="#D77BBA" />
<rect x="43" y="38" width="1" height="1" fill="#D77BBA" />
<rect x="44" y="38" width="1" height="1" fill="#D77BBA" />
<rect x="45" y="38" width="1" height="1" fill="#D77BBA" />
<rect x="46" y="38" width="1" height="1" fill="#D77BBA" />
<rect x="47" y="38" width="1" height="1" fill="#D77BBA" />
<rect x="48" y="38" width="1" height="1" fill="#D77BBA" />
<rect x="49" y="38" width="1" height="1" fill="#D77BBA" />
<rect x="50" y="38" width="1" height="1" fill="#D77BBA" />
<rect x="51" y="38" width="1" height="1" fill="#D77BBA" />
<rect x="30" y="39" width="1" height="1" fill="#D77BBA" />
<rect x="31" y="39" width="1" height="1" fill="#D77BBA" />
<rect x="32" y="39" width="1" height="1" fill="#DB9FC8" />
<rect x="33" y="39" width="1" height="1" fill="#DB9FC8" />
<rect x="34" y="39" width="1" height="1" fill="#DB9FC8" />
<rect x="35" y="39" width="1" height="1" fill="#D77BBA" />
<rect x="36" y="39" width="1" height="1" fill="#D77BBA" />
<rect x="37" y="39" width="1" height="1" fill="#D77BBA" />
<rect x="38" y="39" width="1" height="1" fill="#D77BBA" />
<rect x="39" y="39" width="1" height="1" fill="#D77BBA" />
<rect x="40" y="39" width="1" height="1" fill="#D77BBA" />
<rect x="41" y="39" width="1" height="1" fill="#D77BBA" />
<rect x="42" y="39" width="1" height="1" fill="#D77BBA" />
<rect x="43" y="39" width="1" height="1" fill="#D77BBA" />
<rect x="44" y="39" width="1" height="1" fill="#D77BBA" />
<rect x="45" y="39" width="1" height="1" fill="#D77BBA" />
<rect x="46" y="39" width="1" height="1" fill="#D77BBA" />
<rect x="47" y="39" width="1" height="1" fill="#D77BBA" />
<rect x="48" y="39" width="1" height="1" fill="#D77BBA" />
<rect x="49" y="39" width="1" height="1" fill="#D77BBA" />
<rect x="50" y="39" width="1" height="1" fill="#D77BBA" />
<rect x="51" y="39" width="1" height="1" fill="#D77BBA" />
<rect x="52" y="39" width="1" height="1" fill="#D77BBA" />
<rect x="31" y="40" width="1" height="1" fill="#D77BBA" />
<rect x="32" y="40" width="1" height="1" fill="#D77BBA" />
<rect x="33" y="40" width="1" height="1" fill="#D77BBA" />
<rect x="34" y="40" width="1" height="1" fill="#DB9FC8" />
<rect x="35" y="40" width="1" height="1" fill="#DB9FC8" />
<rect x="36" y="40" width="1" height="1" fill="#D77BBA" />
<rect x="37" y="40" width="1" height="1" fill="#D77BBA" />
<rect x="38" y="40" width="1" height="1" fill="#D77BBA" />
<rect x="39" y="40" width="1" height="1" fill="#D77BBA" />
<rect x="40" y="40" width="1" height="1" fill="#D77BBA" />
<rect x="41" y="40" width="1" height="1" fill="#D77BBA" />
<rect x="42" y="40" width="1" height="1" fill="#D77BBA" />
<rect x="43" y="40" width="1" height="1" fill="#D77BBA" />
<rect x="44" y="40" width="1" height="1" fill="#D77BBA" />
<rect x="45" y="40" width="1" height="1" fill="#D77BBA" />
<rect x="46" y="40" width="1" height="1" fill="#D77BBA" />
<rect x="47" y="40" width="1" height="1" fill="#D77BBA" />
<rect x="48" y="40" width="1" height="1" fill="#D77BBA" />
<rect x="49" y="40" width="1" height="1" fill="#D77BBA" />
<rect x="50" y="40" width="1" height="1" fill="#D77BBA" />
<rect x="51" y="40" width="1" height="1" fill="#D77BBA" />
<rect x="32" y="41" width="1" height="1" fill="#D77BBA" />
<rect x="33" y="41" width="1" height="1" fill="#D77BBA" />
<rect x="34" y="41" width="1" height="1" fill="#D77BBA" />
<rect x="35" y="41" width="1" height="1" fill="#DB9FC8" />
<rect x="36" y="41" width="1" height="1" fill="#DB9FC8" />
<rect x="37" y="41" width="1" height="1" fill="#D77BBA" />
<rect x="38" y="41" width="1" height="1" fill="#D77BBA" />
<rect x="39" y="41" width="1" height="1" fill="#D77BBA" />
<rect x="40" y="41" width="1" height="1" fill="#D77BBA" />
<rect x="41" y="41" width="1" height="1" fill="#D77BBA" />
<rect x="42" y="41" width="1" height="1" fill="#D77BBA" />
<rect x="43" y="41" width="1" height="1" fill="#D77BBA" />
<rect x="44" y="41" width="1" height="1" fill="#D77BBA" />
<rect x="45" y="41" width="1" height="1" fill="#D77BBA" />
<rect x="46" y="41" width="1" height="1" fill="#D77BBA" />
<rect x="47" y="41" width="1" height="1" fill="#D77BBA" />
<rect x="48" y="41" width="1" height="1" fill="#D77BBA" />
<rect x="49" y="41" width="1" height="1" fill="#D77BBA" />
<rect x="50" y="41" width="1" height="1" fill="#D77BBA" />
<rect x="51" y="41" width="1" height="1" fill="#D77BBA" />
<rect x="33" y="42" width="1" height="1" fill="#D77BBA" />
<rect x="34" y="42" width="1" height="1" fill="#D77BBA" />
<rect x="35" y="42" width="1" height="1" fill="#D77BBA" />
<rect x="36" y="42" width="1" height="1" fill="#DB9FC8" />
<rect x="37" y="42" width="1" height="1" fill="#DB9FC8" />
<rect x="38" y="42" width="1" height="1" fill="#DB9FC8" />
<rect x="39" y="42" width="1" height="1" fill="#D77BBA" />
<rect x="40" y="42" width="1" height="1" fill="#D77BBA" />
<rect x="41" y="42" width="1" height="1" fill="#D77BBA" />
<rect x="42" y="42" width="1" height="1" fill="#D77BBA" />
<rect x="43" y="42" width="1" height="1" fill="#D77BBA" />
<rect x="44" y="42" width="1" height="1" fill="#D77BBA" />
<rect x="45" y="42" width="1" height="1" fill="#D77BBA" />
<rect x="46" y="42" width="1" height="1" fill="#D77BBA" />
<rect x="47" y="42" width="1" height="1" fill="#D77BBA" />
<rect x="48" y="42" width="1" height="1" fill="#D77BBA" />
<rect x="49" y="42" width="1" height="1" fill="#D77BBA" />
<rect x="50" y="42" width="1" height="1" fill="#D77BBA" />
<rect x="34" y="43" width="1" height="1" fill="#D77BBA" />
<rect x="35" y="43" width="1" height="1" fill="#D77BBA" />
<rect x="36" y="43" width="1" height="1" fill="#D77BBA" />
<rect x="37" y="43" width="1" height="1" fill="#D77BBA" />
<rect x="38" y="43" width="1" height="1" fill="#DB9FC8" />
<rect x="39" y="43" width="1" height="1" fill="#D77BBA" />
<rect x="40" y="43" width="1" height="1" fill="#D77BBA" />
<rect x="41" y="43" width="1" height="1" fill="#D77BBA" />
<rect x="42" y="43" width="1" height="1" fill="#D77BBA" />
<rect x="43" y="43" width="1" height="1" fill="#D77BBA" />
<rect x="44" y="43" width="1" height="1" fill="#D77BBA" />
<rect x="45" y="43" width="1" height="1" fill="#D77BBA" />
<rect x="46" y="43" width="1" height="1" fill="#D77BBA" />
<rect x="47" y="43" width="1" height="1" fill="#D77BBA" />
<rect x="48" y="43" width="1" height="1" fill="#D77BBA" />
<rect x="49" y="43" width="1" height="1" fill="#D77BBA" />
<rect x="36" y="44" width="1" height="1" fill="#D77BBA" />
<rect x="37" y="44" width="1" height="1" fill="#D77BBA" />
<rect x="38" y="44" width="1" height="1" fill="#DB9FC8" />
<rect x="39" y="44" width="1" height="1" fill="#DB9FC8" />
<rect x="40" y="44" width="1" height="1" fill="#D77BBA" />
<rect x="41" y="44" width="1" height="1" fill="#D77BBA" />
<rect x="42" y="44" width="1" height="1" fill="#D77BBA" />
<rect x="43" y="44" width="1" height="1" fill="#D77BBA" />
<rect x="44" y="44" width="1" height="1" fill="#D77BBA" />
<rect x="45" y="44" width="1" height="1" fill="#D77BBA" />
<rect x="46" y="44" width="1" height="1" fill="#D77BBA" />
<rect x="47" y="44" width="1" height="1" fill="#D77BBA" />
<rect x="48" y="44" width="1" height="1" fill="#D77BBA" />
<rect x="37" y="45" width="1" height="1" fill="#D77BBA" />
<rect x="38" y="45" width="1" height="1" fill="#D77BBA" />
<rect x="39" y="45" width="1" height="1" fill="#DB9FC8" />
<rect x="40" y="45" width="1" height="1" fill="#DB9FC8" />
<rect x="41" y="45" width="1" height="1" fill="#D77BBA" />
<rect x="42" y="45" width="1" height="1" fill="#D77BBA" />
<rect x="43" y="45" width="1" height="1" fill="#D77BBA" />
<rect x="44" y="45" width="1" height="1" fill="#D77BBA" />
<rect x="45" y="45" width="1" height="1" fill="#D77BBA" />
<rect x="46" y="45" width="1" height="1" fill="#D77BBA" />
<rect x="47" y="45" width="1" height="1" fill="#D77BBA" />
<rect x="38" y="46" width="1" height="1" fill="#D77BBA" />
<rect x="39" y="46" width="1" height="1" fill="#D77BBA" />
<rect x="40" y="46" width="1" height="1" fill="#DB9FC8" />
<rect x="41" y="46" width="1" height="1" fill="#D77BBA" />
<rect x="42" y="46" width="1" height="1" fill="#D77BBA" />
<rect x="43" y="46" width="1" height="1" fill="#D77BBA" />
<rect x="44" y="46" width="1" height="1" fill="#D77BBA" />
<rect x="45" y="46" width="1" height="1" fill="#D77BBA" />
<rect x="46" y="46" width="1" height="1" fill="#D77BBA" />
<rect x="39" y="47" width="1" height="1" fill="#D77BBA" />
<rect x="40" y="47" width="1" height="1" fill="#D77BBA" />
<rect x="41" y="47" width="1" height="1" fill="#D77BBA" />
<rect x="42" y="47" width="1" height="1" fill="#D77BBA" />
<rect x="43" y="47" width="1" height="1" fill="#D77BBA" />
<rect x="44" y="47" width="1" height="1" fill="#D77BBA" />
<rect x="45" y="47" width="1" height="1" fill="#D77BBA" />
<rect x="40" y="48" width="1" height="1" fill="#D77BBA" />
<rect x="41" y="48" width="1" height="1" fill="#D77BBA" />
<rect x="42" y="48" width="1" height="1" fill="#D77BBA" />
<rect x="43" y="48" width="1" height="1" fill="#D77BBA" />
<rect x="44" y="48" width="1" height="1" fill="#D77BBA" />
<rect x="41" y="49" width="1" height="1" fill="#D77BBA" />
<rect x="42" y="49" width="1" height="1" fill="#D77BBA" />
<rect x="43" y="49" width="1" height="1" fill="#D77BBA" />
<rect x="42" y="50" width="1" height="1" fill="#D77BBA" />
</svg>