<svg xmlns="http://www.w3.org/2000/svg" version="1.1" shape-rendering="crispEdges" viewBox="0 1 58 54">
<rect x="16" y="3" width="1" height="1" fill="#222034" />
<rect x="16" y="4" width="1" height="1" fill="#222034" />
<rect x="17" y="4" width="1" height="1" fill="#222034" />
<rect x="18" y="4" width="1" height="1" fill="#222034" />
<rect x="16" y="5" width="1" height="1" fill="#222034" />
<rect x="18" y="5" width="1" height="1" fill="#222034" />
<rect x="19" y="5" width="1" height="1" fill="#222034" />
<rect x="20" y="5" width="1" height="1" fill="#222034" />
<rect x="40" y="5" width="1" height="1" fill="#222034" />
<rect x="15" y="6" width="1" height="1" fill="#222034" />
<rect x="16" y="6" width="1" height="1" fill="#222034" />
<rect x="20" y="6" width="1" height="1" fill="#222034" />
<rect x="21" y="6" width="1" height="1" fill="#222034" />
<rect x="39" y="6" width="1" height="1" fill="#222034" />
<rect x="40" y="6" width="1" height="1" fill="#222034" />
<rect x="15" y="7" width="1" height="1" fill="#222034" />
<rect x="16" y="7" width="1" height="1" fill="#222034" />
<rect x="22" y="7" width="1" height="1" fill="#222034" />
<rect x="23" y="7" width="1" height="1" fill="#222034" />
<rect x="39" y="7" width="1" height="1" fill="#222034" />
<rect x="40" y="7" width="1" height="1" fill="#222034" />
<rect x="44" y="7" width="1" height="1" fill="#222034" />
<rect x="45" y="7" width="1" height="1" fill="#222034" />
<rect x="15" y="8" width="1" height="1" fill="#222034" />
<rect x="23" y="8" width="1" height="1" fill="#222034" />
<rect x="24" y="8" width="1" height="1" fill="#222034" />
<rect x="38" y="8" width="1" height="1" fill="#222034" />
<rect x="40" y="8" width="1" height="1" fill="#222034" />
<rect x="43" y="8" width="1" height="1" fill="#222034" />
<rect x="44" y="8" width="1" height="1" fill="#222034" />
<rect x="45" y="8" width="1" height="1" fill="#222034" />
<rect x="15" y="9" width="1" height="1" fill="#222034" />
<rect x="25" y="9" width="1" height="1" fill="#222034" />
<rect x="26" y="9" width="1" height="1" fill="#222034" />
<rect x="37" y="9" width="1" height="1" fill="#222034" />
<rect x="38" y="9" width="1" height="1" fill="#222034" />
<rect x="40" y="9" width="1" height="1" fill="#222034" />
<rect x="41" y="9" width="1" height="1" fill="#222034" />
<rect x="42" y="9" width="1" height="1" fill="#222034" />
<rect x="43" y="9" width="1" height="1" fill="#222034" />
<rect x="44" y="9" width="1" height="1" fill="#222034" />
<rect x="11" y="10" width="1" height="1" fill="#222034" />
<rect x="12" y="10" width="1" height="1" fill="#222034" />
<rect x="13" y="10" width="1" height="1" fill="#222034" />
<rect x="14" y="10" width="1" height="1" fill="#222034" />
<rect x="15" y="10" width="1" height="1" fill="#222034" />
<rect x="26" y="10" width="1" height="1" fill="#222034" />
<rect x="27" y="10" width="1" height="1" fill="#222034" />
<rect x="36" y="10" width="1" height="1" fill="#222034" />
<rect x="37" y="10" width="1" height="1" fill="#222034" />
<rect x="40" y="10" width="1" height="1" fill="#222034" />
<rect x="41" y="10" width="1" height="1" fill="#222034" />
<rect x="43" y="10" width="1" height="1" fill="#222034" />
<rect x="48" y="10" width="1" height="1" fill="#222034" />
<rect x="49" y="10" width="1" height="1" fill="#222034" />
<rect x="11" y="11" width="1" height="1" fill="#222034" />
<rect x="27" y="11" width="1" height="1" fill="#222034" />
<rect x="28" y="11" width="1" height="1" fill="#222034" />
<rect x="29" y="11" width="1" height="1" fill="#222034" />
<rect x="36" y="11" width="1" height="1" fill="#222034" />
<rect x="43" y="11" width="1" height="1" fill="#222034" />
<rect x="44" y="11" width="1" height="1" fill="#222034" />
<rect x="45" y="11" width="1" height="1" fill="#222034" />
<rect x="46" y="11" width="1" height="1" fill="#222034" />
<rect x="47" y="11" width="1" height="1" fill="#222034" />
<rect x="48" y="11" width="1" height="1" fill="#222034" />
<rect x="11" y="12" width="1" height="1" fill="#222034" />
<rect x="29" y="12" width="1" height="1" fill="#222034" />
<rect x="30" y="12" width="1" height="1" fill="#222034" />
<rect x="35" y="12" width="1" height="1" fill="#222034" />
<rect x="36" y="12" width="1" height="1" fill="#222034" />
<rect x="46" y="12" width="1" height="1" fill="#222034" />
<rect x="47" y="12" width="1" height="1" fill="#222034" />
<rect x="7" y="13" width="1" height="1" fill="#222034" />
<rect x="8" y="13" width="1" height="1" fill="#222034" />
<rect x="9" y="13" width="1" height="1" fill="#222034" />
<rect x="10" y="13" width="1" height="1" fill="#222034" />
<rect x="11" y="13" width="1" height="1" fill="#222034" />
<rect x="30" y="13" width="1" height="1" fill="#222034" />
<rect x="31" y="13" width="1" height="1" fill="#222034" />
<rect x="35" y="13" width="1" height="1" fill="#222034" />
<rect x="46" y="13" width="1" height="1" fill="#222034" />
<rect x="7" y="14" width="1" height="1" fill="#222034" />
<rect x="31" y="14" width="1" height="1" fill="#222034" />
<rect x="32" y="14" width="1" height="1" fill="#222034" />
<rect x="34" y="14" width="1" height="1" fill="#222034" />
<rect x="35" y="14" width="1" height="1" fill="#222034" />
<rect x="46" y="14" width="1" height="1" fill="#222034" />
<rect x="47" y="14" width="1" height="1" fill="#222034" />
<rect x="48" y="14" width="1" height="1" fill="#222034" />
<rect x="49" y="14" width="1" height="1" fill="#222034" />
<rect x="50" y="14" width="1" height="1" fill="#222034" />
<rect x="7" y="15" width="1" height="1" fill="#222034" />
<rect x="32" y="15" width="1" height="1" fill="#222034" />
<rect x="33" y="15" width="1" height="1" fill="#222034" />
<rect x="34" y="15" width="1" height="1" fill="#222034" />
<rect x="50" y="15" width="1" height="1" fill="#222034" />
<rect x="51" y="15" width="1" height="1" fill="#222034" />
<rect x="3" y="16" width="1" height="1" fill="#222034" />
<rect x="4" y="16" width="1" height="1" fill="#222034" />
<rect x="5" y="16" width="1" height="1" fill="#222034" />
<rect x="7" y="16" width="1" height="1" fill="#222034" />
<rect x="46" y="16" width="1" height="1" fill="#222034" />
<rect x="47" y="16" width="1" height="1" fill="#222034" />
<rect x="48" y="16" width="1" height="1" fill="#222034" />
<rect x="49" y="16" width="1" height="1" fill="#222034" />
<rect x="50" y="16" width="1" height="1" fill="#222034" />
<rect x="51" y="16" width="1" height="1" fill="#222034" />
<rect x="3" y="17" width="1" height="1" fill="#222034" />
<rect x="6" y="17" width="1" height="1" fill="#222034" />
<rect x="7" y="17" width="1" height="1" fill="#222034" />
<rect x="44" y="17" width="1" height="1" fill="#222034" />
<rect x="45" y="17" width="1" height="1" fill="#222034" />
<rect x="46" y="17" width="1" height="1" fill="#222034" />
<rect x="47" y="17" width="1" height="1" fill="#222034" />
<rect x="4" y="18" width="1" height="1" fill="#222034" />
<rect x="42" y="18" width="1" height="1" fill="#222034" />
<rect x="43" y="18" width="1" height="1" fill="#222034" />
<rect x="44" y="18" width="1" height="1" fill="#222034" />
<rect x="5" y="19" width="1" height="1" fill="#222034" />
<rect x="39" y="19" width="1" height="1" fill="#222034" />
<rect x="40" y="19" width="1" height="1" fill="#222034" />
<rect x="41" y="19" width="1" height="1" fill="#222034" />
<rect x="42" y="19" width="1" height="1" fill="#222034" />
<rect x="6" y="20" width="1" height="1" fill="#222034" />
<rect x="39" y="20" width="1" height="1" fill="#222034" />
<rect x="6" y="21" width="1" height="1" fill="#222034" />
<rect x="7" y="21" width="1" height="1" fill="#222034" />
<rect x="37" y="21" width="1" height="1" fill="#222034" />
<rect x="38" y="21" width="1" height="1" fill="#222034" />
<rect x="39" y="21" width="1" height="1" fill="#222034" />
<rect x="7" y="22" width="1" height="1" fill="#222034" />
<rect x="36" y="22" width="1" height="1" fill="#222034" />
<rect x="37" y="22" width="1" height="1" fill="#222034" />
<rect x="38" y="22" width="1" height="1" fill="#222034" />
<rect x="7" y="23" width="1" height="1" fill="#222034" />
<rect x="8" y="23" width="1" height="1" fill="#222034" />
<rect x="36" y="23" width="1" height="1" fill="#222034" />
<rect x="37" y="23" width="1" height="1" fill="#222034" />
<rect x="38" y="23" width="1" height="1" fill="#222034" />
<rect x="8" y="24" width="1" height="1" fill="#222034" />
<rect x="9" y="24" width="1" height="1" fill="#222034" />
<rect x="10" y="24" width="1" height="1" fill="#222034" />
<rect x="33" y="24" width="1" height="1" fill="#222034" />
<rect x="34" y="24" width="1" height="1" fill="#222034" />
<rect x="35" y="24" width="1" height="1" fill="#222034" />
<rect x="36" y="24" width="1" height="1" fill="#222034" />
<rect x="38" y="24" width="1" height="1" fill="#222034" />
<rect x="39" y="24" width="1" height="1" fill="#222034" />
<rect x="10" y="25" width="1" height="1" fill="#222034" />
<rect x="11" y="25" width="1" height="1" fill="#222034" />
<rect x="32" y="25" width="1" height="1" fill="#222034" />
<rect x="33" y="25" width="1" height="1" fill="#222034" />
<rect x="39" y="25" width="1" height="1" fill="#222034" />
<rect x="40" y="25" width="1" height="1" fill="#222034" />
<rect x="11" y="26" width="1" height="1" fill="#222034" />
<rect x="12" y="26" width="1" height="1" fill="#222034" />
<rect x="31" y="26" width="1" height="1" fill="#222034" />
<rect x="32" y="26" width="1" height="1" fill="#222034" />
<rect x="40" y="26" width="1" height="1" fill="#222034" />
<rect x="41" y="26" width="1" height="1" fill="#222034" />
<rect x="11" y="27" width="1" height="1" fill="#222034" />
<rect x="12" y="27" width="1" height="1" fill="#222034" />
<rect x="31" y="27" width="1" height="1" fill="#222034" />
<rect x="32" y="27" width="1" height="1" fill="#222034" />
<rect x="41" y="27" width="1" height="1" fill="#222034" />
<rect x="42" y="27" width="1" height="1" fill="#222034" />
<rect x="12" y="28" width="1" height="1" fill="#222034" />
<rect x="13" y="28" width="1" height="1" fill="#222034" />
<rect x="14" y="28" width="1" height="1" fill="#222034" />
<rect x="28" y="28" width="1" height="1" fill="#222034" />
<rect x="29" y="28" width="1" height="1" fill="#222034" />
<rect x="30" y="28" width="1" height="1" fill="#222034" />
<rect x="31" y="28" width="1" height="1" fill="#222034" />
<rect x="42" y="28" width="1" height="1" fill="#222034" />
<rect x="43" y="28" width="1" height="1" fill="#222034" />
<rect x="13" y="29" width="1" height="1" fill="#222034" />
<rect x="14" y="29" width="1" height="1" fill="#222034" />
<rect x="15" y="29" width="1" height="1" fill="#222034" />
<rect x="27" y="29" width="1" height="1" fill="#222034" />
<rect x="28" y="29" width="1" height="1" fill="#222034" />
<rect x="43" y="29" width="1" height="1" fill="#222034" />
<rect x="44" y="29" width="1" height="1" fill="#222034" />
<rect x="15" y="30" width="1" height="1" fill="#222034" />
<rect x="16" y="30" width="1" height="1" fill="#222034" />
<rect x="17" y="30" width="1" height="1" fill="#222034" />
<rect x="27" y="30" width="1" height="1" fill="#222034" />
<rect x="44" y="30" width="1" height="1" fill="#222034" />
<rect x="45" y="30" width="1" height="1" fill="#222034" />
<rect x="15" y="31" width="1" height="1" fill="#222034" />
<rect x="16" y="31" width="1" height="1" fill="#222034" />
<rect x="17" y="31" width="1" height="1" fill="#222034" />
<rect x="27" y="31" width="1" height="1" fill="#222034" />
<rect x="45" y="31" width="1" height="1" fill="#222034" />
<rect x="46" y="31" width="1" height="1" fill="#222034" />
<rect x="17" y="32" width="1" height="1" fill="#222034" />
<rect x="26" y="32" width="1" height="1" fill="#222034" />
<rect x="27" y="32" width="1" height="1" fill="#222034" />
<rect x="46" y="32" width="1" height="1" fill="#222034" />
<rect x="47" y="32" width="1" height="1" fill="#222034" />
<rect x="16" y="33" width="1" height="1" fill="#222034" />
<rect x="17" y="33" width="1" height="1" fill="#222034" />
<rect x="26" y="33" width="1" height="1" fill="#222034" />
<rect x="47" y="33" width="1" height="1" fill="#222034" />
<rect x="48" y="33" width="1" height="1" fill="#222034" />
<rect x="13" y="34" width="1" height="1" fill="#222034" />
<rect x="14" y="34" width="1" height="1" fill="#222034" />
<rect x="15" y="34" width="1" height="1" fill="#222034" />
<rect x="16" y="34" width="1" height="1" fill="#222034" />
<rect x="24" y="34" width="1" height="1" fill="#222034" />
<rect x="25" y="34" width="1" height="1" fill="#222034" />
<rect x="48" y="34" width="1" height="1" fill="#222034" />
<rect x="49" y="34" width="1" height="1" fill="#222034" />
<rect x="12" y="35" width="1" height="1" fill="#222034" />
<rect x="13" y="35" width="1" height="1" fill="#222034" />
<rect x="24" y="35" width="1" height="1" fill="#222034" />
<rect x="25" y="35" width="1" height="1" fill="#222034" />
<rect x="49" y="35" width="1" height="1" fill="#222034" />
<rect x="50" y="35" width="1" height="1" fill="#222034" />
<rect x="10" y="36" width="1" height="1" fill="#222034" />
<rect x="11" y="36" width="1" height="1" fill="#222034" />
<rect x="23" y="36" width="1" height="1" fill="#222034" />
<rect x="24" y="36" width="1" height="1" fill="#222034" />
<rect x="25" y="36" width="1" height="1" fill="#222034" />
<rect x="26" y="36" width="1" height="1" fill="#222034" />
<rect x="50" y="36" width="1" height="1" fill="#222034" />
<rect x="51" y="36" width="1" height="1" fill="#222034" />
<rect x="9" y="37" width="1" height="1" fill="#222034" />
<rect x="10" y="37" width="1" height="1" fill="#222034" />
<rect x="23" y="37" width="1" height="1" fill="#222034" />
<rect x="26" y="37" width="1" height="1" fill="#222034" />
<rect x="27" y="37" width="1" height="1" fill="#222034" />
<rect x="51" y="37" width="1" height="1" fill="#222034" />
<rect x="52" y="37" width="1" height="1" fill="#222034" />
<rect x="8" y="38" width="1" height="1" fill="#222034" />
<rect x="9" y="38" width="1" height="1" fill="#222034" />
<rect x="23" y="38" width="1" height="1" fill="#222034" />
<rect x="27" y="38" width="1" height="1" fill="#222034" />
<rect x="28" y="38" width="1" height="1" fill="#222034" />
<rect x="52" y="38" width="1" height="1" fill="#222034" />
<rect x="53" y="38" width="1" height="1" fill="#222034" />
<rect x="54" y="38" width="1" height="1" fill="#222034" />
<rect x="7" y="39" width="1" height="1" fill="#222034" />
<rect x="8" y="39" width="1" height="1" fill="#222034" />
<rect x="22" y="39" width="1" height="1" fill="#222034" />
<rect x="28" y="39" width="1" height="1" fill="#222034" />
<rect x="29" y="39" width="1" height="1" fill="#222034" />
<rect x="53" y="39" width="1" height="1" fill="#222034" />
<rect x="54" y="39" width="1" height="1" fill="#222034" />
<rect x="5" y="40" width="1" height="1" fill="#222034" />
<rect x="6" y="40" width="1" height="1" fill="#222034" />
<rect x="22" y="40" width="1" height="1" fill="#222034" />
<rect x="29" y="40" width="1" height="1" fill="#222034" />
<rect x="30" y="40" width="1" height="1" fill="#222034" />
<rect x="52" y="40" width="1" height="1" fill="#222034" />
<rect x="53" y="40" width="1" height="1" fill="#222034" />
<rect x="4" y="41" width="1" height="1" fill="#222034" />
<rect x="5" y="41" width="1" height="1" fill="#222034" />
<rect x="6" y="41" width="1" height="1" fill="#222034" />
<rect x="7" y="41" width="1" height="1" fill="#222034" />
<rect x="8" y="41" width="1" height="1" fill="#222034" />
<rect x="9" y="41" width="1" height="1" fill="#222034" />
<rect x="10" y="41" width="1" height="1" fill="#222034" />
<rect x="21" y="41" width="1" height="1" fill="#222034" />
<rect x="22" y="41" width="1" height="1" fill="#222034" />
<rect x="30" y="41" width="1" height="1" fill="#222034" />
<rect x="31" y="41" width="1" height="1" fill="#222034" />
<rect x="52" y="41" width="1" height="1" fill="#222034" />
<rect x="9" y="42" width="1" height="1" fill="#222034" />
<rect x="21" y="42" width="1" height="1" fill="#222034" />
<rect x="22" y="42" width="1" height="1" fill="#222034" />
<rect x="31" y="42" width="1" height="1" fill="#222034" />
<rect x="32" y="42" width="1" height="1" fill="#222034" />
<rect x="51" y="42" width="1" height="1" fill="#222034" />
<rect x="52" y="42" width="1" height="1" fill="#222034" />
<rect x="8" y="43" width="1" height="1" fill="#222034" />
<rect x="9" y="43" width="1" height="1" fill="#222034" />
<rect x="10" y="43" width="1" height="1" fill="#222034" />
<rect x="21" y="43" width="1" height="1" fill="#222034" />
<rect x="33" y="43" width="1" height="1" fill="#222034" />
<rect x="50" y="43" width="1" height="1" fill="#222034" />
<rect x="51" y="43" width="1" height="1" fill="#222034" />
<rect x="6" y="44" width="1" height="1" fill="#222034" />
<rect x="7" y="44" width="1" height="1" fill="#222034" />
<rect x="8" y="44" width="1" height="1" fill="#222034" />
<rect x="9" y="44" width="1" height="1" fill="#222034" />
<rect x="10" y="44" width="1" height="1" fill="#222034" />
<rect x="14" y="44" width="1" height="1" fill="#222034" />
<rect x="20" y="44" width="1" height="1" fill="#222034" />
<rect x="21" y="44" width="1" height="1" fill="#222034" />
<rect x="34" y="44" width="1" height="1" fill="#222034" />
<rect x="35" y="44" width="1" height="1" fill="#222034" />
<rect x="49" y="44" width="1" height="1" fill="#222034" />
<rect x="50" y="44" width="1" height="1" fill="#222034" />
<rect x="6" y="45" width="1" height="1" fill="#222034" />
<rect x="7" y="45" width="1" height="1" fill="#222034" />
<rect x="9" y="45" width="1" height="1" fill="#222034" />
<rect x="12" y="45" width="1" height="1" fill="#222034" />
<rect x="13" y="45" width="1" height="1" fill="#222034" />
<rect x="14" y="45" width="1" height="1" fill="#222034" />
<rect x="19" y="45" width="1" height="1" fill="#222034" />
<rect x="20" y="45" width="1" height="1" fill="#222034" />
<rect x="35" y="45" width="1" height="1" fill="#222034" />
<rect x="36" y="45" width="1" height="1" fill="#222034" />
<rect x="48" y="45" width="1" height="1" fill="#222034" />
<rect x="49" y="45" width="1" height="1" fill="#222034" />
<rect x="9" y="46" width="1" height="1" fill="#222034" />
<rect x="11" y="46" width="1" height="1" fill="#222034" />
<rect x="12" y="46" width="1" height="1" fill="#222034" />
<rect x="13" y="46" width="1" height="1" fill="#222034" />
<rect x="18" y="46" width="1" height="1" fill="#222034" />
<rect x="19" y="46" width="1" height="1" fill="#222034" />
<rect x="36" y="46" width="1" height="1" fill="#222034" />
<rect x="37" y="46" width="1" height="1" fill="#222034" />
<rect x="47" y="46" width="1" height="1" fill="#222034" />
<rect x="48" y="46" width="1" height="1" fill="#222034" />
<rect x="9" y="47" width="1" height="1" fill="#222034" />
<rect x="10" y="47" width="1" height="1" fill="#222034" />
<rect x="11" y="47" width="1" height="1" fill="#222034" />
<rect x="13" y="47" width="1" height="1" fill="#222034" />
<rect x="17" y="47" width="1" height="1" fill="#222034" />
<rect x="18" y="47" width="1" height="1" fill="#222034" />
<rect x="37" y="47" width="1" height="1" fill="#222034" />
<rect x="38" y="47" width="1" height="1" fill="#222034" />
<rect x="46" y="47" width="1" height="1" fill="#222034" />
<rect x="47" y="47" width="1" height="1" fill="#222034" />
<rect x="13" y="48" width="1" height="1" fill="#222034" />
<rect x="16" y="48" width="1" height="1" fill="#222034" />
<rect x="17" y="48" width="1" height="1" fill="#222034" />
<rect x="38" y="48" width="1" height="1" fill="#222034" />
<rect x="39" y="48" width="1" height="1" fill="#222034" />
<rect x="45" y="48" width="1" height="1" fill="#222034" />
<rect x="46" y="48" width="1" height="1" fill="#222034" />
<rect x="13" y="49" width="1" height="1" fill="#222034" />
<rect x="14" y="49" width="1" height="1" fill="#222034" />
<rect x="15" y="49" width="1" height="1" fill="#222034" />
<rect x="16" y="49" width="1" height="1" fill="#222034" />
<rect x="39" y="49" width="1" height="1" fill="#222034" />
<rect x="40" y="49" width="1" height="1" fill="#222034" />
<rect x="44" y="49" width="1" height="1" fill="#222034" />
<rect x="45" y="49" width="1" height="1" fill="#222034" />
<rect x="14" y="50" width="1" height="1" fill="#222034" />
<rect x="15" y="50" width="1" height="1" fill="#222034" />
<rect x="40" y="50" width="1" height="1" fill="#222034" />
<rect x="41" y="50" width="1" height="1" fill="#222034" />
<rect x="43" y="50" width="1" height="1" fill="#222034" />
<rect x="44" y="50" width="1" height="1" fill="#222034" />
<rect x="42" y="51" width="1" height="1" fill="#222034" />
<rect x="43" y="51" width="1" height="1" fill="#222034" />
</svg>