<svg xmlns="http://www.w3.org/2000/svg" version="1.1" shape-rendering="crispEdges" viewBox="0 1 58 54">
<rect x="19" y="10" width="1" height="1" fill="#FFE5E5" />
<rect x="21" y="10" width="1" height="1" fill="#FFE5E5" />
<rect x="18" y="11" width="1" height="1" fill="#FFE5E5" />
<rect x="19" y="11" width="1" height="1" fill="#FFE5E5" />
<rect x="20" y="11" width="1" height="1" fill="#FFE5E5" />
<rect x="21" y="11" width="1" height="1" fill="#FFE5E5" />
<rect x="22" y="11" width="1" height="1" fill="#FFE5E5" />
<rect x="18" y="12" width="1" height="1" fill="#F4ABAB" />
<rect x="19" y="12" width="1" height="1" fill="#FFE5E5" />
<rect x="20" y="12" width="1" height="1" fill="#FFE5E5" />
<rect x="21" y="12" width="1" height="1" fill="#FFE5E5" />
<rect x="22" y="12" width="1" height="1" fill="#F4ABAB" />
<rect x="39" y="12" width="1" height="1" fill="#FFE5E5" />
<rect x="41" y="12" width="1" height="1" fill="#FFE5E5" />
<rect x="19" y="13" width="1" height="1" fill="#F4ABAB" />
<rect x="20" y="13" width="1" height="1" fill="#FFE5E5" />
<rect x="21" y="13" width="1" height="1" fill="#F4ABAB" />
<rect x="38" y="13" width="1" height="1" fill="#FFE5E5" />
<rect x="39" y="13" width="1" height="1" fill="#FFE5E5" />
<rect x="40" y="13" width="1" height="1" fill="#FFE5E5" />
<rect x="41" y="13" width="1" height="1" fill="#FFE5E5" />
<rect x="42" y="13" width="1" height="1" fill="#FFE5E5" />
<rect x="20" y="14" width="1" height="1" fill="#F4ABAB" />
<rect x="38" y="14" width="1" height="1" fill="#F4ABAB" />
<rect x="39" y="14" width="1" height="1" fill="#FFE5E5" />
<rect x="40" y="14" width="1" height="1" fill="#FFE5E5" />
<rect x="41" y="14" width="1" height="1" fill="#FFE5E5" />
<rect x="42" y="14" width="1" height="1" fill="#F4ABAB" />
<rect x="25" y="15" width="1" height="1" fill="#FFE5E5" />
<rect x="27" y="15" width="1" height="1" fill="#FFE5E5" />
<rect x="39" y="15" width="1" height="1" fill="#F4ABAB" />
<rect x="40" y="15" width="1" height="1" fill="#FFE5E5" />
<rect x="41" y="15" width="1" height="1" fill="#F4ABAB" />
<rect x="24" y="16" width="1" height="1" fill="#FFE5E5" />
<rect x="25" y="16" width="1" height="1" fill="#FFE5E5" />
<rect x="26" y="16" width="1" height="1" fill="#FFE5E5" />
<rect x="27" y="16" width="1" height="1" fill="#FFE5E5" />
<rect x="28" y="16" width="1" height="1" fill="#FFE5E5" />
<rect x="40" y="16" width="1" height="1" fill="#F4ABAB" />
<rect x="11" y="17" width="1" height="1" fill="#FFE5E5" />
<rect x="13" y="17" width="1" height="1" fill="#FFE5E5" />
<rect x="24" y="17" width="1" height="1" fill="#F4ABAB" />
<rect x="25" y="17" width="1" height="1" fill="#FFE5E5" />
<rect x="26" y="17" width="1" height="1" fill="#FFE5E5" />
<rect x="27" y="17" width="1" height="1" fill="#FFE5E5" />
<rect x="28" y="17" width="1" height="1" fill="#F4ABAB" />
<rect x="10" y="18" width="1" height="1" fill="#FFE5E5" />
<rect x="11" y="18" width="1" height="1" fill="#FFE5E5" />
<rect x="12" y="18" width="1" height="1" fill="#FFE5E5" />
<rect x="13" y="18" width="1" height="1" fill="#FFE5E5" />
<rect x="14" y="18" width="1" height="1" fill="#FFE5E5" />
<rect x="25" y="18" width="1" height="1" fill="#F4ABAB" />
<rect x="26" y="18" width="1" height="1" fill="#FFE5E5" />
<rect x="27" y="18" width="1" height="1" fill="#F4ABAB" />
<rect x="10" y="19" width="1" height="1" fill="#F4ABAB" />
<rect x="11" y="19" width="1" height="1" fill="#FFE5E5" />
<rect x="12" y="19" width="1" height="1" fill="#FFE5E5" />
<rect x="13" y="19" width="1" height="1" fill="#FFE5E5" />
<rect x="14" y="19" width="1" height="1" fill="#F4ABAB" />
<rect x="26" y="19" width="1" height="1" fill="#F4ABAB" />
<rect x="11" y="20" width="1" height="1" fill="#F4ABAB" />
<rect x="12" y="20" width="1" height="1" fill="#FFE5E5" />
<rect x="13" y="20" width="1" height="1" fill="#F4ABAB" />
<rect x="12" y="21" width="1" height="1" fill="#F4ABAB" />
<rect x="26" y="22" width="1" height="1" fill="#FFE5E5" />
<rect x="28" y="22" width="1" height="1" fill="#FFE5E5" />
<rect x="17" y="23" width="1" height="1" fill="#FFE5E5" />
<rect x="19" y="23" width="1" height="1" fill="#FFE5E5" />
<rect x="25" y="23" width="1" height="1" fill="#FFE5E5" />
<rect x="26" y="23" width="1" height="1" fill="#FFE5E5" />
<rect x="27" y="23" width="1" height="1" fill="#FFE5E5" />
<rect x="28" y="23" width="1" height="1" fill="#FFE5E5" />
<rect x="29" y="23" width="1" height="1" fill="#FFE5E5" />
<rect x="16" y="24" width="1" height="1" fill="#FFE5E5" />
<rect x="17" y="24" width="1" height="1" fill="#FFE5E5" />
<rect x="18" y="24" width="1" height="1" fill="#FFE5E5" />
<rect x="19" y="24" width="1" height="1" fill="#FFE5E5" />
<rect x="20" y="24" width="1" height="1" fill="#FFE5E5" />
<rect x="25" y="24" width="1" height="1" fill="#F4ABAB" />
<rect x="26" y="24" width="1" height="1" fill="#FFE5E5" />
<rect x="27" y="24" width="1" height="1" fill="#FFE5E5" />
<rect x="28" y="24" width="1" height="1" fill="#FFE5E5" />
<rect x="29" y="24" width="1" height="1" fill="#F4ABAB" />
<rect x="16" y="25" width="1" height="1" fill="#F4ABAB" />
<rect x="17" y="25" width="1" height="1" fill="#FFE5E5" />
<rect x="18" y="25" width="1" height="1" fill="#FFE5E5" />
<rect x="19" y="25" width="1" height="1" fill="#FFE5E5" />
<rect x="20" y="25" width="1" height="1" fill="#F4ABAB" />
<rect x="26" y="25" width="1" height="1" fill="#F4ABAB" />
<rect x="27" y="25" width="1" height="1" fill="#FFE5E5" />
<rect x="28" y="25" width="1" height="1" fill="#F4ABAB" />
<rect x="17" y="26" width="1" height="1" fill="#F4ABAB" />
<rect x="18" y="26" width="1" height="1" fill="#FFE5E5" />
<rect x="19" y="26" width="1" height="1" fill="#F4ABAB" />
<rect x="27" y="26" width="1" height="1" fill="#F4ABAB" />
<rect x="18" y="27" width="1" height="1" fill="#F4ABAB" />
<rect x="15" y="38" width="1" height="1" fill="#FFE5E5" />
<rect x="17" y="38" width="1" height="1" fill="#FFE5E5" />
<rect x="14" y="39" width="1" height="1" fill="#FFE5E5" />
<rect x="15" y="39" width="1" height="1" fill="#FFE5E5" />
<rect x="16" y="39" width="1" height="1" fill="#FFE5E5" />
<rect x="17" y="39" width="1" height="1" fill="#FFE5E5" />
<rect x="18" y="39" width="1" height="1" fill="#FFE5E5" />
<rect x="14" y="40" width="1" height="1" fill="#F4ABAB" />
<rect x="15" y="40" width="1" height="1" fill="#FFE5E5" />
<rect x="16" y="40" width="1" height="1" fill="#FFE5E5" />
<rect x="17" y="40" width="1" height="1" fill="#FFE5E5" />
<rect x="18" y="40" width="1" height="1" fill="#F4ABAB" />
<rect x="15" y="41" width="1" height="1" fill="#F4ABAB" />
<rect x="16" y="41" width="1" height="1" fill="#FFE5E5" />
<rect x="17" y="41" width="1" height="1" fill="#F4ABAB" />
<rect x="16" y="42" width="1" height="1" fill="#F4ABAB" />
</svg>