<svg xmlns="http://www.w3.org/2000/svg" version="1.1" shape-rendering="crispEdges" viewBox="0 1 58 54">
<rect x="18" y="9" width="1" height="1" fill="#4CD7E9" />
<rect x="19" y="9" width="1" height="1" fill="#4CD7E9" />
<rect x="18" y="10" width="1" height="1" fill="#4CD7E9" />
<rect x="19" y="10" width="1" height="1" fill="#4CD7E9" />
<rect x="13" y="12" width="1" height="1" fill="#E94CAE" />
<rect x="14" y="12" width="1" height="1" fill="#E94CAE" />
<rect x="24" y="12" width="1" height="1" fill="#E9964C" />
<rect x="25" y="12" width="1" height="1" fill="#E9964C" />
<rect x="13" y="13" width="1" height="1" fill="#E94CAE" />
<rect x="14" y="13" width="1" height="1" fill="#E94CAE" />
<rect x="24" y="13" width="1" height="1" fill="#E9964C" />
<rect x="25" y="13" width="1" height="1" fill="#E9964C" />
<rect x="20" y="14" width="1" height="1" fill="#4C68E9" />
<rect x="21" y="14" width="1" height="1" fill="#4C68E9" />
<rect x="42" y="14" width="1" height="1" fill="#E7E94C" />
<rect x="43" y="14" width="1" height="1" fill="#E7E94C" />
<rect x="20" y="15" width="1" height="1" fill="#4C68E9" />
<rect x="21" y="15" width="1" height="1" fill="#4C68E9" />
<rect x="38" y="15" width="1" height="1" fill="#AA4CE9" />
<rect x="39" y="15" width="1" height="1" fill="#AA4CE9" />
<rect x="42" y="15" width="1" height="1" fill="#E7E94C" />
<rect x="43" y="15" width="1" height="1" fill="#E7E94C" />
<rect x="38" y="16" width="1" height="1" fill="#AA4CE9" />
<rect x="39" y="16" width="1" height="1" fill="#AA4CE9" />
<rect x="16" y="17" width="1" height="1" fill="#E94C4C" />
<rect x="17" y="17" width="1" height="1" fill="#E94C4C" />
<rect x="29" y="17" width="1" height="1" fill="#85E94C" />
<rect x="30" y="17" width="1" height="1" fill="#85E94C" />
<rect x="9" y="18" width="1" height="1" fill="#E9964C" />
<rect x="10" y="18" width="1" height="1" fill="#E9964C" />
<rect x="16" y="18" width="1" height="1" fill="#E94C4C" />
<rect x="17" y="18" width="1" height="1" fill="#E94C4C" />
<rect x="24" y="18" width="1" height="1" fill="#AA4CE9" />
<rect x="25" y="18" width="1" height="1" fill="#AA4CE9" />
<rect x="29" y="18" width="1" height="1" fill="#85E94C" />
<rect x="30" y="18" width="1" height="1" fill="#85E94C" />
<rect x="9" y="19" width="1" height="1" fill="#E9964C" />
<rect x="10" y="19" width="1" height="1" fill="#E9964C" />
<rect x="24" y="19" width="1" height="1" fill="#AA4CE9" />
<rect x="25" y="19" width="1" height="1" fill="#AA4CE9" />
<rect x="19" y="22" width="1" height="1" fill="#E7E94C" />
<rect x="20" y="22" width="1" height="1" fill="#E7E94C" />
<rect x="27" y="22" width="1" height="1" fill="#E94CAE" />
<rect x="28" y="22" width="1" height="1" fill="#E94CAE" />
<rect x="14" y="23" width="1" height="1" fill="#4CD7E9" />
<rect x="15" y="23" width="1" height="1" fill="#4CD7E9" />
<rect x="19" y="23" width="1" height="1" fill="#E7E94C" />
<rect x="20" y="23" width="1" height="1" fill="#E7E94C" />
<rect x="27" y="23" width="1" height="1" fill="#E94CAE" />
<rect x="28" y="23" width="1" height="1" fill="#E94CAE" />
<rect x="14" y="24" width="1" height="1" fill="#4CD7E9" />
<rect x="15" y="24" width="1" height="1" fill="#4CD7E9" />
<rect x="21" y="28" width="1" height="1" fill="#4C68E9" />
<rect x="22" y="28" width="1" height="1" fill="#4C68E9" />
<rect x="21" y="29" width="1" height="1" fill="#4C68E9" />
<rect x="22" y="29" width="1" height="1" fill="#4C68E9" />
<rect x="19" y="36" width="1" height="1" fill="#85E94C" />
<rect x="20" y="36" width="1" height="1" fill="#85E94C" />
<rect x="19" y="37" width="1" height="1" fill="#85E94C" />
<rect x="20" y="37" width="1" height="1" fill="#85E94C" />
<rect x="13" y="38" width="1" height="1" fill="#E94C4C" />
<rect x="14" y="38" width="1" height="1" fill="#E94C4C" />
<rect x="13" y="39" width="1" height="1" fill="#E94C4C" />
<rect x="14" y="39" width="1" height="1" fill="#E94C4C" />
</svg>